<mxfile host="Electron" modified="2023-08-17T14:01:50.177Z" agent="Mozilla/5.0 (Windows NT 10.0; Win64; x64) AppleWebKit/537.36 (KHTML, like Gecko) draw.io/21.6.5 Chrome/114.0.5735.243 Electron/25.3.1 Safari/537.36" etag="JXs3K2lsZdsKSmzzdcEG" version="21.6.5" type="device">
  <diagram name="Page-1" id="KcvaqceAmyFRrwMdn_xZ">
    <mxGraphModel dx="2869" dy="1164" grid="1" gridSize="10" guides="1" tooltips="1" connect="1" arrows="1" fold="1" page="1" pageScale="1" pageWidth="827" pageHeight="1169" math="0" shadow="0">
      <root>
        <mxCell id="0" />
        <mxCell id="1" parent="0" />
        <mxCell id="WlsqMzOY9wFAaWYgSssA-2" value="Anypoint Platform" style="swimlane;whiteSpace=wrap;html=1;" parent="1" vertex="1">
          <mxGeometry x="-800" y="20" width="760" height="930" as="geometry">
            <mxRectangle x="10" y="10" width="140" height="30" as="alternateBounds" />
          </mxGeometry>
        </mxCell>
        <mxCell id="WlsqMzOY9wFAaWYgSssA-3" value="CICD_ConnectedApp" style="swimlane;whiteSpace=wrap;html=1;" parent="WlsqMzOY9wFAaWYgSssA-2" vertex="1">
          <mxGeometry x="20" y="40" width="190" height="640" as="geometry">
            <mxRectangle x="20" y="40" width="160" height="30" as="alternateBounds" />
          </mxGeometry>
        </mxCell>
        <mxCell id="WlsqMzOY9wFAaWYgSssA-20" value="&lt;h1&gt;Scopes&lt;/h1&gt;&lt;p&gt;- Design Center&lt;/p&gt;&lt;p&gt;- Design Center Developer&lt;/p&gt;&lt;p&gt;- Exchange&lt;/p&gt;&lt;p&gt;- Exchange Administrator&lt;/p&gt;&lt;p&gt;- Exchange Contributor&lt;/p&gt;&lt;p&gt;- Exchange Creator&lt;/p&gt;&lt;p&gt;- Exchange Viewer&lt;/p&gt;&lt;p&gt;- General&lt;/p&gt;&lt;p&gt;- View Environment&lt;/p&gt;&lt;p&gt;- View wOrganization&lt;/p&gt;&lt;p&gt;- OpenID&lt;/p&gt;&lt;p&gt;- Profile&lt;/p&gt;&lt;p&gt;- Runtime Manager&lt;/p&gt;&lt;p&gt;- Cloudhub Organization Admin&lt;/p&gt;&lt;p&gt;- Create Applications&lt;/p&gt;&lt;p&gt;- Delete Applications&lt;/p&gt;&lt;p&gt;- Read Applications&lt;/p&gt;" style="text;html=1;strokeColor=none;fillColor=none;spacing=5;spacingTop=-20;whiteSpace=wrap;overflow=hidden;rounded=0;" parent="WlsqMzOY9wFAaWYgSssA-3" vertex="1">
          <mxGeometry x="10" y="140" width="160" height="500" as="geometry" />
        </mxCell>
        <mxCell id="WlsqMzOY9wFAaWYgSssA-101" value="&lt;h1&gt;Credentials&lt;/h1&gt;&lt;p&gt;Client ID: 123-456-789&lt;/p&gt;&lt;p&gt;Client Secret: A19d6a8fg7q&lt;/p&gt;" style="text;html=1;strokeColor=none;fillColor=none;spacing=5;spacingTop=-20;whiteSpace=wrap;overflow=hidden;rounded=0;" parent="WlsqMzOY9wFAaWYgSssA-3" vertex="1">
          <mxGeometry x="10" y="30" width="160" height="120" as="geometry" />
        </mxCell>
        <mxCell id="WlsqMzOY9wFAaWYgSssA-21" value="Organization ID" style="rounded=1;whiteSpace=wrap;html=1;" parent="WlsqMzOY9wFAaWYgSssA-2" vertex="1">
          <mxGeometry x="220" y="40" width="120" height="30" as="geometry" />
        </mxCell>
        <mxCell id="WlsqMzOY9wFAaWYgSssA-94" value="API Manager" style="swimlane;whiteSpace=wrap;html=1;" parent="WlsqMzOY9wFAaWYgSssA-2" vertex="1">
          <mxGeometry x="350" y="40" width="140" height="150" as="geometry" />
        </mxCell>
        <mxCell id="WlsqMzOY9wFAaWYgSssA-95" value="API_IDs" style="swimlane;fontStyle=0;childLayout=stackLayout;horizontal=1;startSize=30;horizontalStack=0;resizeParent=1;resizeParentMax=0;resizeLast=0;collapsible=1;marginBottom=0;whiteSpace=wrap;html=1;" parent="WlsqMzOY9wFAaWYgSssA-94" vertex="1">
          <mxGeometry y="25" width="140" height="120" as="geometry" />
        </mxCell>
        <mxCell id="WlsqMzOY9wFAaWYgSssA-96" value="ApplicationName1=1234" style="text;strokeColor=none;fillColor=none;align=left;verticalAlign=middle;spacingLeft=4;spacingRight=4;overflow=hidden;points=[[0,0.5],[1,0.5]];portConstraint=eastwest;rotatable=0;whiteSpace=wrap;html=1;" parent="WlsqMzOY9wFAaWYgSssA-95" vertex="1">
          <mxGeometry y="30" width="140" height="30" as="geometry" />
        </mxCell>
        <mxCell id="WlsqMzOY9wFAaWYgSssA-97" value="ApplicationName2=2345" style="text;strokeColor=none;fillColor=none;align=left;verticalAlign=middle;spacingLeft=4;spacingRight=4;overflow=hidden;points=[[0,0.5],[1,0.5]];portConstraint=eastwest;rotatable=0;whiteSpace=wrap;html=1;" parent="WlsqMzOY9wFAaWYgSssA-95" vertex="1">
          <mxGeometry y="60" width="140" height="30" as="geometry" />
        </mxCell>
        <mxCell id="WlsqMzOY9wFAaWYgSssA-98" value="ApplicationName2=3456" style="text;strokeColor=none;fillColor=none;align=left;verticalAlign=middle;spacingLeft=4;spacingRight=4;overflow=hidden;points=[[0,0.5],[1,0.5]];portConstraint=eastwest;rotatable=0;whiteSpace=wrap;html=1;" parent="WlsqMzOY9wFAaWYgSssA-95" vertex="1">
          <mxGeometry y="90" width="140" height="30" as="geometry" />
        </mxCell>
        <mxCell id="WlsqMzOY9wFAaWYgSssA-106" value="UAT Environment" style="swimlane;whiteSpace=wrap;html=1;" parent="WlsqMzOY9wFAaWYgSssA-2" vertex="1">
          <mxGeometry x="220" y="710" width="200" height="200" as="geometry" />
        </mxCell>
        <mxCell id="WlsqMzOY9wFAaWYgSssA-109" value="&lt;h1&gt;Credentials&lt;/h1&gt;&lt;p&gt;Client ID: 123-456-789&lt;/p&gt;&lt;p&gt;Client Secret: A19d6a8fg7q&lt;/p&gt;" style="text;html=1;strokeColor=none;fillColor=none;spacing=5;spacingTop=-20;whiteSpace=wrap;overflow=hidden;rounded=0;" parent="WlsqMzOY9wFAaWYgSssA-106" vertex="1">
          <mxGeometry x="20" y="30" width="160" height="120" as="geometry" />
        </mxCell>
        <mxCell id="WlsqMzOY9wFAaWYgSssA-107" value="DEV Environment" style="swimlane;whiteSpace=wrap;html=1;" parent="WlsqMzOY9wFAaWYgSssA-2" vertex="1">
          <mxGeometry x="10" y="710" width="200" height="200" as="geometry" />
        </mxCell>
        <mxCell id="WlsqMzOY9wFAaWYgSssA-108" value="&lt;h1&gt;Credentials&lt;/h1&gt;&lt;p&gt;Client ID: 123-456-789&lt;/p&gt;&lt;p&gt;Client Secret: A19d6a8fg7q&lt;/p&gt;" style="text;html=1;strokeColor=none;fillColor=none;spacing=5;spacingTop=-20;whiteSpace=wrap;overflow=hidden;rounded=0;" parent="WlsqMzOY9wFAaWYgSssA-107" vertex="1">
          <mxGeometry x="20" y="30" width="160" height="120" as="geometry" />
        </mxCell>
        <mxCell id="WlsqMzOY9wFAaWYgSssA-105" value="PROD Environment" style="swimlane;whiteSpace=wrap;html=1;" parent="WlsqMzOY9wFAaWYgSssA-2" vertex="1">
          <mxGeometry x="440" y="710" width="200" height="200" as="geometry" />
        </mxCell>
        <mxCell id="WlsqMzOY9wFAaWYgSssA-110" value="&lt;h1&gt;Credentials&lt;/h1&gt;&lt;p&gt;Client ID: 123-456-789&lt;/p&gt;&lt;p&gt;Client Secret: A19d6a8fg7q&lt;/p&gt;" style="text;html=1;strokeColor=none;fillColor=none;spacing=5;spacingTop=-20;whiteSpace=wrap;overflow=hidden;rounded=0;" parent="WlsqMzOY9wFAaWYgSssA-105" vertex="1">
          <mxGeometry x="20" y="30" width="160" height="120" as="geometry" />
        </mxCell>
        <mxCell id="WlsqMzOY9wFAaWYgSssA-113" value="" style="curved=1;endArrow=classic;html=1;rounded=0;exitX=1;exitY=0.5;exitDx=0;exitDy=0;entryX=0;entryY=0.5;entryDx=0;entryDy=0;" parent="WlsqMzOY9wFAaWYgSssA-2" target="WlsqMzOY9wFAaWYgSssA-33" edge="1">
          <mxGeometry width="50" height="50" relative="1" as="geometry">
            <mxPoint x="400" y="795" as="sourcePoint" />
            <mxPoint x="1070" y="240" as="targetPoint" />
            <Array as="points">
              <mxPoint x="380" y="625" />
              <mxPoint x="740" y="315" />
            </Array>
          </mxGeometry>
        </mxCell>
        <mxCell id="WlsqMzOY9wFAaWYgSssA-114" value="" style="curved=1;endArrow=classic;html=1;rounded=0;exitX=1;exitY=0.75;exitDx=0;exitDy=0;entryX=0;entryY=0.5;entryDx=0;entryDy=0;" parent="WlsqMzOY9wFAaWYgSssA-2" target="WlsqMzOY9wFAaWYgSssA-36" edge="1">
          <mxGeometry width="50" height="50" relative="1" as="geometry">
            <mxPoint x="400" y="825" as="sourcePoint" />
            <mxPoint x="1080" y="260" as="targetPoint" />
            <Array as="points">
              <mxPoint x="430" y="665" />
              <mxPoint x="560" y="475" />
              <mxPoint x="870" y="315" />
            </Array>
          </mxGeometry>
        </mxCell>
        <mxCell id="WlsqMzOY9wFAaWYgSssA-117" value="ps_organization_sandbox" style="rounded=1;whiteSpace=wrap;html=1;" parent="WlsqMzOY9wFAaWYgSssA-2" vertex="1">
          <mxGeometry x="500" y="40" width="150" height="20" as="geometry" />
        </mxCell>
        <mxCell id="WlsqMzOY9wFAaWYgSssA-118" value="ps_organization_prod" style="rounded=1;whiteSpace=wrap;html=1;" parent="WlsqMzOY9wFAaWYgSssA-2" vertex="1">
          <mxGeometry x="500" y="70" width="150" height="20" as="geometry" />
        </mxCell>
        <mxCell id="WlsqMzOY9wFAaWYgSssA-22" value="Source Control" style="swimlane;whiteSpace=wrap;html=1;" parent="1" vertex="1">
          <mxGeometry x="40" y="30" width="950" height="780" as="geometry">
            <mxRectangle x="90" y="550" width="100" height="30" as="alternateBounds" />
          </mxGeometry>
        </mxCell>
        <mxCell id="WlsqMzOY9wFAaWYgSssA-26" value="Organization" style="swimlane;whiteSpace=wrap;html=1;" parent="WlsqMzOY9wFAaWYgSssA-22" vertex="1">
          <mxGeometry x="10" y="30" width="940" height="750" as="geometry">
            <mxRectangle x="320" y="120" width="110" height="30" as="alternateBounds" />
          </mxGeometry>
        </mxCell>
        <mxCell id="WlsqMzOY9wFAaWYgSssA-27" value="Secrets and Variables" style="swimlane;whiteSpace=wrap;html=1;" parent="WlsqMzOY9wFAaWYgSssA-26" vertex="1">
          <mxGeometry x="10" y="30" width="450" height="400" as="geometry">
            <mxRectangle x="10" y="30" width="160" height="30" as="alternateBounds" />
          </mxGeometry>
        </mxCell>
        <mxCell id="WlsqMzOY9wFAaWYgSssA-28" value="Secrets" style="swimlane;fontStyle=0;childLayout=stackLayout;horizontal=1;startSize=30;horizontalStack=0;resizeParent=1;resizeParentMax=0;resizeLast=0;collapsible=1;marginBottom=0;whiteSpace=wrap;html=1;" parent="WlsqMzOY9wFAaWYgSssA-27" vertex="1">
          <mxGeometry x="10" y="30" width="200" height="360" as="geometry">
            <mxRectangle x="10" y="30" width="80" height="30" as="alternateBounds" />
          </mxGeometry>
        </mxCell>
        <mxCell id="WlsqMzOY9wFAaWYgSssA-29" value="AP_Organization_ID" style="text;strokeColor=none;fillColor=none;align=left;verticalAlign=middle;spacingLeft=4;spacingRight=4;overflow=hidden;points=[[0,0.5],[1,0.5]];portConstraint=eastwest;rotatable=0;whiteSpace=wrap;html=1;fontColor=#004C99;" parent="WlsqMzOY9wFAaWYgSssA-28" vertex="1">
          <mxGeometry y="30" width="200" height="30" as="geometry" />
        </mxCell>
        <mxCell id="WlsqMzOY9wFAaWYgSssA-30" value="AP_CICD_ConnectedApp_ClientID" style="text;strokeColor=none;fillColor=none;align=left;verticalAlign=middle;spacingLeft=4;spacingRight=4;overflow=hidden;points=[[0,0.5],[1,0.5]];portConstraint=eastwest;rotatable=0;whiteSpace=wrap;html=1;fontColor=#004C99;" parent="WlsqMzOY9wFAaWYgSssA-28" vertex="1">
          <mxGeometry y="60" width="200" height="30" as="geometry" />
        </mxCell>
        <mxCell id="WlsqMzOY9wFAaWYgSssA-31" value="AP_CICD_ConnectedApp_ClientSecret" style="text;strokeColor=none;fillColor=none;align=left;verticalAlign=middle;spacingLeft=4;spacingRight=4;overflow=hidden;points=[[0,0.5],[1,0.5]];portConstraint=eastwest;rotatable=0;whiteSpace=wrap;html=1;fontColor=#004C99;" parent="WlsqMzOY9wFAaWYgSssA-28" vertex="1">
          <mxGeometry y="90" width="200" height="30" as="geometry" />
        </mxCell>
        <mxCell id="WlsqMzOY9wFAaWYgSssA-32" value="AP_DEV_ClientID" style="text;strokeColor=none;fillColor=none;align=left;verticalAlign=middle;spacingLeft=4;spacingRight=4;overflow=hidden;points=[[0,0.5],[1,0.5]];portConstraint=eastwest;rotatable=0;whiteSpace=wrap;html=1;fontColor=#004C99;" parent="WlsqMzOY9wFAaWYgSssA-28" vertex="1">
          <mxGeometry y="120" width="200" height="30" as="geometry" />
        </mxCell>
        <mxCell id="WlsqMzOY9wFAaWYgSssA-37" value="AP_DEV_ClientSecret" style="text;strokeColor=none;fillColor=none;align=left;verticalAlign=middle;spacingLeft=4;spacingRight=4;overflow=hidden;points=[[0,0.5],[1,0.5]];portConstraint=eastwest;rotatable=0;whiteSpace=wrap;html=1;fontColor=#004C99;" parent="WlsqMzOY9wFAaWYgSssA-28" vertex="1">
          <mxGeometry y="150" width="200" height="30" as="geometry" />
        </mxCell>
        <mxCell id="WlsqMzOY9wFAaWYgSssA-33" value="AP_UAT_ClientID" style="text;strokeColor=none;fillColor=none;align=left;verticalAlign=middle;spacingLeft=4;spacingRight=4;overflow=hidden;points=[[0,0.5],[1,0.5]];portConstraint=eastwest;rotatable=0;whiteSpace=wrap;html=1;fontColor=#004C99;" parent="WlsqMzOY9wFAaWYgSssA-28" vertex="1">
          <mxGeometry y="180" width="200" height="30" as="geometry" />
        </mxCell>
        <mxCell id="WlsqMzOY9wFAaWYgSssA-36" value="AP_UAT_ClientSecret" style="text;strokeColor=none;fillColor=none;align=left;verticalAlign=middle;spacingLeft=4;spacingRight=4;overflow=hidden;points=[[0,0.5],[1,0.5]];portConstraint=eastwest;rotatable=0;whiteSpace=wrap;html=1;fontColor=#004C99;" parent="WlsqMzOY9wFAaWYgSssA-28" vertex="1">
          <mxGeometry y="210" width="200" height="30" as="geometry" />
        </mxCell>
        <mxCell id="WlsqMzOY9wFAaWYgSssA-34" value="AP_PROD_ClientID" style="text;strokeColor=none;fillColor=none;align=left;verticalAlign=middle;spacingLeft=4;spacingRight=4;overflow=hidden;points=[[0,0.5],[1,0.5]];portConstraint=eastwest;rotatable=0;whiteSpace=wrap;html=1;fontColor=#004C99;" parent="WlsqMzOY9wFAaWYgSssA-28" vertex="1">
          <mxGeometry y="240" width="200" height="30" as="geometry" />
        </mxCell>
        <mxCell id="WlsqMzOY9wFAaWYgSssA-35" value="AP_PROD_ClientSecret" style="text;strokeColor=none;fillColor=none;align=left;verticalAlign=middle;spacingLeft=4;spacingRight=4;overflow=hidden;points=[[0,0.5],[1,0.5]];portConstraint=eastwest;rotatable=0;whiteSpace=wrap;html=1;fontColor=#004C99;" parent="WlsqMzOY9wFAaWYgSssA-28" vertex="1">
          <mxGeometry y="270" width="200" height="30" as="geometry" />
        </mxCell>
        <mxCell id="f1pE22XIs8Pt3IvtdLca-1" value="MuleSoft_EE_Rep_Username" style="text;strokeColor=none;fillColor=none;align=left;verticalAlign=middle;spacingLeft=4;spacingRight=4;overflow=hidden;points=[[0,0.5],[1,0.5]];portConstraint=eastwest;rotatable=0;whiteSpace=wrap;html=1;" vertex="1" parent="WlsqMzOY9wFAaWYgSssA-28">
          <mxGeometry y="300" width="200" height="30" as="geometry" />
        </mxCell>
        <mxCell id="f1pE22XIs8Pt3IvtdLca-2" value="MuleSoft_EE_Rep_Password" style="text;strokeColor=none;fillColor=none;align=left;verticalAlign=middle;spacingLeft=4;spacingRight=4;overflow=hidden;points=[[0,0.5],[1,0.5]];portConstraint=eastwest;rotatable=0;whiteSpace=wrap;html=1;" vertex="1" parent="WlsqMzOY9wFAaWYgSssA-28">
          <mxGeometry y="330" width="200" height="30" as="geometry" />
        </mxCell>
        <mxCell id="WlsqMzOY9wFAaWYgSssA-52" value="Variables" style="swimlane;fontStyle=0;childLayout=stackLayout;horizontal=1;startSize=30;horizontalStack=0;resizeParent=1;resizeParentMax=0;resizeLast=0;collapsible=1;marginBottom=0;whiteSpace=wrap;html=1;" parent="WlsqMzOY9wFAaWYgSssA-27" vertex="1">
          <mxGeometry x="220" y="30" width="190" height="90" as="geometry" />
        </mxCell>
        <mxCell id="WlsqMzOY9wFAaWYgSssA-53" value="AP_PrivateSpace_Sandbox_Name" style="text;strokeColor=none;fillColor=none;align=left;verticalAlign=middle;spacingLeft=4;spacingRight=4;overflow=hidden;points=[[0,0.5],[1,0.5]];portConstraint=eastwest;rotatable=0;whiteSpace=wrap;html=1;fontColor=#004C99;" parent="WlsqMzOY9wFAaWYgSssA-52" vertex="1">
          <mxGeometry y="30" width="190" height="30" as="geometry" />
        </mxCell>
        <mxCell id="WlsqMzOY9wFAaWYgSssA-54" value="AP_PrivateSpace_Prod_Name" style="text;strokeColor=none;fillColor=none;align=left;verticalAlign=middle;spacingLeft=4;spacingRight=4;overflow=hidden;points=[[0,0.5],[1,0.5]];portConstraint=eastwest;rotatable=0;whiteSpace=wrap;html=1;fontColor=#004C99;" parent="WlsqMzOY9wFAaWYgSssA-52" vertex="1">
          <mxGeometry y="60" width="190" height="30" as="geometry" />
        </mxCell>
        <mxCell id="WlsqMzOY9wFAaWYgSssA-39" value="Repository" style="swimlane;whiteSpace=wrap;html=1;" parent="WlsqMzOY9wFAaWYgSssA-26" vertex="1">
          <mxGeometry x="480" y="30" width="460" height="500" as="geometry">
            <mxRectangle x="480" y="30" width="150" height="30" as="alternateBounds" />
          </mxGeometry>
        </mxCell>
        <mxCell id="WlsqMzOY9wFAaWYgSssA-24" value="Main" style="rounded=1;whiteSpace=wrap;html=1;" parent="WlsqMzOY9wFAaWYgSssA-39" vertex="1">
          <mxGeometry x="10" y="180" width="120" height="60" as="geometry" />
        </mxCell>
        <mxCell id="WlsqMzOY9wFAaWYgSssA-25" value="Develop" style="rounded=1;whiteSpace=wrap;html=1;" parent="WlsqMzOY9wFAaWYgSssA-39" vertex="1">
          <mxGeometry x="10" y="270" width="120" height="60" as="geometry" />
        </mxCell>
        <mxCell id="WlsqMzOY9wFAaWYgSssA-23" value="Feature/[xyz]" style="rounded=1;whiteSpace=wrap;html=1;" parent="WlsqMzOY9wFAaWYgSssA-39" vertex="1">
          <mxGeometry x="10" y="360" width="120" height="60" as="geometry" />
        </mxCell>
        <mxCell id="WlsqMzOY9wFAaWYgSssA-40" value="Secrets and Variables" style="swimlane;whiteSpace=wrap;html=1;" parent="WlsqMzOY9wFAaWYgSssA-39" vertex="1">
          <mxGeometry x="150" y="310" width="310" height="180" as="geometry">
            <mxRectangle x="150" y="310" width="160" height="30" as="alternateBounds" />
          </mxGeometry>
        </mxCell>
        <mxCell id="WlsqMzOY9wFAaWYgSssA-47" value="Secrets" style="swimlane;fontStyle=0;childLayout=stackLayout;horizontal=1;startSize=30;horizontalStack=0;resizeParent=1;resizeParentMax=0;resizeLast=0;collapsible=1;marginBottom=0;whiteSpace=wrap;html=1;" parent="WlsqMzOY9wFAaWYgSssA-40" vertex="1">
          <mxGeometry x="10" y="30" width="140" height="120" as="geometry" />
        </mxCell>
        <mxCell id="WlsqMzOY9wFAaWYgSssA-48" value="Encryption_Key" style="text;strokeColor=none;fillColor=none;align=left;verticalAlign=middle;spacingLeft=4;spacingRight=4;overflow=hidden;points=[[0,0.5],[1,0.5]];portConstraint=eastwest;rotatable=0;whiteSpace=wrap;html=1;fontColor=#009900;" parent="WlsqMzOY9wFAaWYgSssA-47" vertex="1">
          <mxGeometry y="30" width="140" height="30" as="geometry" />
        </mxCell>
        <mxCell id="WlsqMzOY9wFAaWYgSssA-90" value="Custom_Secret_1" style="text;strokeColor=none;fillColor=none;align=left;verticalAlign=middle;spacingLeft=4;spacingRight=4;overflow=hidden;points=[[0,0.5],[1,0.5]];portConstraint=eastwest;rotatable=0;whiteSpace=wrap;html=1;fontColor=#009900;" parent="WlsqMzOY9wFAaWYgSssA-47" vertex="1">
          <mxGeometry y="60" width="140" height="30" as="geometry" />
        </mxCell>
        <mxCell id="WlsqMzOY9wFAaWYgSssA-91" value="&lt;font color=&quot;#009900&quot;&gt;Custom_Secret_2&lt;/font&gt;" style="text;strokeColor=none;fillColor=none;align=left;verticalAlign=middle;spacingLeft=4;spacingRight=4;overflow=hidden;points=[[0,0.5],[1,0.5]];portConstraint=eastwest;rotatable=0;whiteSpace=wrap;html=1;" parent="WlsqMzOY9wFAaWYgSssA-47" vertex="1">
          <mxGeometry y="90" width="140" height="30" as="geometry" />
        </mxCell>
        <mxCell id="WlsqMzOY9wFAaWYgSssA-56" value="Variables" style="swimlane;fontStyle=0;childLayout=stackLayout;horizontal=1;startSize=30;horizontalStack=0;resizeParent=1;resizeParentMax=0;resizeLast=0;collapsible=1;marginBottom=0;whiteSpace=wrap;html=1;" parent="WlsqMzOY9wFAaWYgSssA-40" vertex="1">
          <mxGeometry x="160" y="30" width="140" height="150" as="geometry" />
        </mxCell>
        <mxCell id="WlsqMzOY9wFAaWYgSssA-58" value="Replicas" style="text;strokeColor=none;fillColor=none;align=left;verticalAlign=middle;spacingLeft=4;spacingRight=4;overflow=hidden;points=[[0,0.5],[1,0.5]];portConstraint=eastwest;rotatable=0;whiteSpace=wrap;html=1;fontColor=#009900;" parent="WlsqMzOY9wFAaWYgSssA-56" vertex="1">
          <mxGeometry y="30" width="140" height="30" as="geometry" />
        </mxCell>
        <mxCell id="WlsqMzOY9wFAaWYgSssA-59" value="&lt;font color=&quot;#009900&quot;&gt;vCores&lt;/font&gt;" style="text;strokeColor=none;fillColor=none;align=left;verticalAlign=middle;spacingLeft=4;spacingRight=4;overflow=hidden;points=[[0,0.5],[1,0.5]];portConstraint=eastwest;rotatable=0;whiteSpace=wrap;html=1;" parent="WlsqMzOY9wFAaWYgSssA-56" vertex="1">
          <mxGeometry y="60" width="140" height="30" as="geometry" />
        </mxCell>
        <mxCell id="WlsqMzOY9wFAaWYgSssA-57" value="Application_Name" style="text;strokeColor=none;fillColor=none;align=left;verticalAlign=middle;spacingLeft=4;spacingRight=4;overflow=hidden;points=[[0,0.5],[1,0.5]];portConstraint=eastwest;rotatable=0;whiteSpace=wrap;html=1;fontColor=#009900;" parent="WlsqMzOY9wFAaWYgSssA-56" vertex="1">
          <mxGeometry y="90" width="140" height="30" as="geometry" />
        </mxCell>
        <mxCell id="WlsqMzOY9wFAaWYgSssA-89" value="AP_API_ID" style="text;strokeColor=none;fillColor=none;align=left;verticalAlign=middle;spacingLeft=4;spacingRight=4;overflow=hidden;points=[[0,0.5],[1,0.5]];portConstraint=eastwest;rotatable=0;whiteSpace=wrap;html=1;fontColor=#004C99;" parent="WlsqMzOY9wFAaWYgSssA-56" vertex="1">
          <mxGeometry y="120" width="140" height="30" as="geometry" />
        </mxCell>
        <mxCell id="WlsqMzOY9wFAaWYgSssA-88" value="Hotfix/[1234]" style="rounded=1;whiteSpace=wrap;html=1;" parent="WlsqMzOY9wFAaWYgSssA-39" vertex="1">
          <mxGeometry x="10" y="90" width="120" height="60" as="geometry" />
        </mxCell>
        <mxCell id="WlsqMzOY9wFAaWYgSssA-132" value="Caller workflows?" style="swimlane;fontStyle=0;childLayout=stackLayout;horizontal=1;startSize=30;horizontalStack=0;resizeParent=1;resizeParentMax=0;resizeLast=0;collapsible=1;marginBottom=0;whiteSpace=wrap;html=1;" parent="WlsqMzOY9wFAaWYgSssA-39" vertex="1">
          <mxGeometry x="260" y="30" width="200" height="210" as="geometry" />
        </mxCell>
        <mxCell id="WlsqMzOY9wFAaWYgSssA-133" value="deployment_dev.yaml" style="text;strokeColor=none;fillColor=none;align=left;verticalAlign=middle;spacingLeft=4;spacingRight=4;overflow=hidden;points=[[0,0.5],[1,0.5]];portConstraint=eastwest;rotatable=0;whiteSpace=wrap;html=1;" parent="WlsqMzOY9wFAaWYgSssA-132" vertex="1">
          <mxGeometry y="30" width="200" height="30" as="geometry" />
        </mxCell>
        <mxCell id="WlsqMzOY9wFAaWYgSssA-134" value="deployment_prod.yaml" style="text;strokeColor=none;fillColor=none;align=left;verticalAlign=middle;spacingLeft=4;spacingRight=4;overflow=hidden;points=[[0,0.5],[1,0.5]];portConstraint=eastwest;rotatable=0;whiteSpace=wrap;html=1;" parent="WlsqMzOY9wFAaWYgSssA-132" vertex="1">
          <mxGeometry y="60" width="200" height="30" as="geometry" />
        </mxCell>
        <mxCell id="WlsqMzOY9wFAaWYgSssA-135" value="deployment_uat.yaml" style="text;strokeColor=none;fillColor=none;align=left;verticalAlign=middle;spacingLeft=4;spacingRight=4;overflow=hidden;points=[[0,0.5],[1,0.5]];portConstraint=eastwest;rotatable=0;whiteSpace=wrap;html=1;" parent="WlsqMzOY9wFAaWYgSssA-132" vertex="1">
          <mxGeometry y="90" width="200" height="30" as="geometry" />
        </mxCell>
        <mxCell id="WlsqMzOY9wFAaWYgSssA-136" value="maven_release-prepare.yaml" style="text;strokeColor=none;fillColor=none;align=left;verticalAlign=middle;spacingLeft=4;spacingRight=4;overflow=hidden;points=[[0,0.5],[1,0.5]];portConstraint=eastwest;rotatable=0;whiteSpace=wrap;html=1;" parent="WlsqMzOY9wFAaWYgSssA-132" vertex="1">
          <mxGeometry y="120" width="200" height="30" as="geometry" />
        </mxCell>
        <mxCell id="WlsqMzOY9wFAaWYgSssA-137" value="run_unittest.yaml" style="text;strokeColor=none;fillColor=none;align=left;verticalAlign=middle;spacingLeft=4;spacingRight=4;overflow=hidden;points=[[0,0.5],[1,0.5]];portConstraint=eastwest;rotatable=0;whiteSpace=wrap;html=1;" parent="WlsqMzOY9wFAaWYgSssA-132" vertex="1">
          <mxGeometry y="150" width="200" height="30" as="geometry" />
        </mxCell>
        <mxCell id="WlsqMzOY9wFAaWYgSssA-138" value="deploy_exchange.yaml" style="text;strokeColor=none;fillColor=none;align=left;verticalAlign=middle;spacingLeft=4;spacingRight=4;overflow=hidden;points=[[0,0.5],[1,0.5]];portConstraint=eastwest;rotatable=0;whiteSpace=wrap;html=1;" parent="WlsqMzOY9wFAaWYgSssA-132" vertex="1">
          <mxGeometry y="180" width="200" height="30" as="geometry" />
        </mxCell>
        <mxCell id="WlsqMzOY9wFAaWYgSssA-124" value="Workflow repository" style="swimlane;whiteSpace=wrap;html=1;" parent="WlsqMzOY9wFAaWYgSssA-26" vertex="1">
          <mxGeometry x="10" y="490" width="450" height="250" as="geometry" />
        </mxCell>
        <mxCell id="WlsqMzOY9wFAaWYgSssA-125" value="Reusable workflows" style="swimlane;fontStyle=0;childLayout=stackLayout;horizontal=1;startSize=30;horizontalStack=0;resizeParent=1;resizeParentMax=0;resizeLast=0;collapsible=1;marginBottom=0;whiteSpace=wrap;html=1;" parent="WlsqMzOY9wFAaWYgSssA-124" vertex="1">
          <mxGeometry x="10" y="30" width="200" height="210" as="geometry" />
        </mxCell>
        <mxCell id="WlsqMzOY9wFAaWYgSssA-126" value="deployment_dev.yaml" style="text;strokeColor=none;fillColor=none;align=left;verticalAlign=middle;spacingLeft=4;spacingRight=4;overflow=hidden;points=[[0,0.5],[1,0.5]];portConstraint=eastwest;rotatable=0;whiteSpace=wrap;html=1;" parent="WlsqMzOY9wFAaWYgSssA-125" vertex="1">
          <mxGeometry y="30" width="200" height="30" as="geometry" />
        </mxCell>
        <mxCell id="WlsqMzOY9wFAaWYgSssA-128" value="deployment_prod.yaml" style="text;strokeColor=none;fillColor=none;align=left;verticalAlign=middle;spacingLeft=4;spacingRight=4;overflow=hidden;points=[[0,0.5],[1,0.5]];portConstraint=eastwest;rotatable=0;whiteSpace=wrap;html=1;" parent="WlsqMzOY9wFAaWYgSssA-125" vertex="1">
          <mxGeometry y="60" width="200" height="30" as="geometry" />
        </mxCell>
        <mxCell id="WlsqMzOY9wFAaWYgSssA-129" value="deployment_uat.yaml" style="text;strokeColor=none;fillColor=none;align=left;verticalAlign=middle;spacingLeft=4;spacingRight=4;overflow=hidden;points=[[0,0.5],[1,0.5]];portConstraint=eastwest;rotatable=0;whiteSpace=wrap;html=1;" parent="WlsqMzOY9wFAaWYgSssA-125" vertex="1">
          <mxGeometry y="90" width="200" height="30" as="geometry" />
        </mxCell>
        <mxCell id="WlsqMzOY9wFAaWYgSssA-130" value="maven_release-prepare.yaml" style="text;strokeColor=none;fillColor=none;align=left;verticalAlign=middle;spacingLeft=4;spacingRight=4;overflow=hidden;points=[[0,0.5],[1,0.5]];portConstraint=eastwest;rotatable=0;whiteSpace=wrap;html=1;" parent="WlsqMzOY9wFAaWYgSssA-125" vertex="1">
          <mxGeometry y="120" width="200" height="30" as="geometry" />
        </mxCell>
        <mxCell id="WlsqMzOY9wFAaWYgSssA-127" value="run_unittest.yaml" style="text;strokeColor=none;fillColor=none;align=left;verticalAlign=middle;spacingLeft=4;spacingRight=4;overflow=hidden;points=[[0,0.5],[1,0.5]];portConstraint=eastwest;rotatable=0;whiteSpace=wrap;html=1;" parent="WlsqMzOY9wFAaWYgSssA-125" vertex="1">
          <mxGeometry y="150" width="200" height="30" as="geometry" />
        </mxCell>
        <mxCell id="WlsqMzOY9wFAaWYgSssA-131" value="deploy_exchange.yaml" style="text;strokeColor=none;fillColor=none;align=left;verticalAlign=middle;spacingLeft=4;spacingRight=4;overflow=hidden;points=[[0,0.5],[1,0.5]];portConstraint=eastwest;rotatable=0;whiteSpace=wrap;html=1;" parent="WlsqMzOY9wFAaWYgSssA-125" vertex="1">
          <mxGeometry y="180" width="200" height="30" as="geometry" />
        </mxCell>
        <UserObject label="https://docs.github.com/en/actions/&#xa;using-workflows/reusing-workflows" link="https://docs.github.com/en/actions/using-workflows/reusing-workflows" id="WlsqMzOY9wFAaWYgSssA-139">
          <mxCell style="text;whiteSpace=wrap;" parent="WlsqMzOY9wFAaWYgSssA-124" vertex="1">
            <mxGeometry x="230" y="60" width="195" height="40" as="geometry" />
          </mxCell>
        </UserObject>
        <mxCell id="WlsqMzOY9wFAaWYgSssA-99" value="" style="curved=1;endArrow=classic;html=1;rounded=0;exitX=1;exitY=0.5;exitDx=0;exitDy=0;entryX=0;entryY=0.5;entryDx=0;entryDy=0;" parent="1" source="WlsqMzOY9wFAaWYgSssA-96" target="WlsqMzOY9wFAaWYgSssA-89" edge="1">
          <mxGeometry width="50" height="50" relative="1" as="geometry">
            <mxPoint x="-30" y="450" as="sourcePoint" />
            <mxPoint x="20" y="400" as="targetPoint" />
            <Array as="points">
              <mxPoint x="-20" y="130" />
              <mxPoint x="-110" y="660" />
              <mxPoint x="670" y="640" />
            </Array>
          </mxGeometry>
        </mxCell>
        <mxCell id="WlsqMzOY9wFAaWYgSssA-100" value="" style="curved=1;endArrow=classic;html=1;rounded=0;exitX=0.442;exitY=1.075;exitDx=0;exitDy=0;entryX=0;entryY=0.5;entryDx=0;entryDy=0;exitPerimeter=0;" parent="1" source="WlsqMzOY9wFAaWYgSssA-21" target="WlsqMzOY9wFAaWYgSssA-29" edge="1">
          <mxGeometry width="50" height="50" relative="1" as="geometry">
            <mxPoint x="-30" y="450" as="sourcePoint" />
            <mxPoint x="20" y="400" as="targetPoint" />
            <Array as="points">
              <mxPoint x="-510" y="270" />
              <mxPoint x="-150" y="280" />
              <mxPoint x="-40" y="170" />
            </Array>
          </mxGeometry>
        </mxCell>
        <mxCell id="WlsqMzOY9wFAaWYgSssA-103" value="" style="curved=1;endArrow=classic;html=1;rounded=0;exitX=1;exitY=0.5;exitDx=0;exitDy=0;entryX=0;entryY=0.5;entryDx=0;entryDy=0;" parent="1" source="WlsqMzOY9wFAaWYgSssA-101" target="WlsqMzOY9wFAaWYgSssA-30" edge="1">
          <mxGeometry width="50" height="50" relative="1" as="geometry">
            <mxPoint x="-30" y="450" as="sourcePoint" />
            <mxPoint x="20" y="400" as="targetPoint" />
            <Array as="points">
              <mxPoint x="-520" y="150" />
              <mxPoint x="-460" y="290" />
              <mxPoint x="-110" y="310" />
            </Array>
          </mxGeometry>
        </mxCell>
        <mxCell id="WlsqMzOY9wFAaWYgSssA-104" value="" style="curved=1;endArrow=classic;html=1;rounded=0;exitX=1;exitY=0.75;exitDx=0;exitDy=0;entryX=0;entryY=0.5;entryDx=0;entryDy=0;" parent="1" source="WlsqMzOY9wFAaWYgSssA-101" target="WlsqMzOY9wFAaWYgSssA-31" edge="1">
          <mxGeometry width="50" height="50" relative="1" as="geometry">
            <mxPoint x="-30" y="450" as="sourcePoint" />
            <mxPoint x="20" y="400" as="targetPoint" />
            <Array as="points">
              <mxPoint x="-540" y="180" />
              <mxPoint x="-460" y="290" />
              <mxPoint x="-300" y="320" />
              <mxPoint x="-140" y="320" />
            </Array>
          </mxGeometry>
        </mxCell>
        <mxCell id="WlsqMzOY9wFAaWYgSssA-111" value="" style="curved=1;endArrow=classic;html=1;rounded=0;exitX=1;exitY=0.5;exitDx=0;exitDy=0;entryX=0;entryY=0.5;entryDx=0;entryDy=0;" parent="1" source="WlsqMzOY9wFAaWYgSssA-108" target="WlsqMzOY9wFAaWYgSssA-32" edge="1">
          <mxGeometry width="50" height="50" relative="1" as="geometry">
            <mxPoint x="-30" y="450" as="sourcePoint" />
            <mxPoint x="20" y="400" as="targetPoint" />
            <Array as="points">
              <mxPoint x="-630" y="650" />
              <mxPoint x="-270" y="340" />
            </Array>
          </mxGeometry>
        </mxCell>
        <mxCell id="WlsqMzOY9wFAaWYgSssA-112" value="" style="curved=1;endArrow=classic;html=1;rounded=0;exitX=1;exitY=0.75;exitDx=0;exitDy=0;entryX=0;entryY=0.5;entryDx=0;entryDy=0;" parent="1" source="WlsqMzOY9wFAaWYgSssA-108" target="WlsqMzOY9wFAaWYgSssA-37" edge="1">
          <mxGeometry width="50" height="50" relative="1" as="geometry">
            <mxPoint x="-30" y="450" as="sourcePoint" />
            <mxPoint x="20" y="400" as="targetPoint" />
            <Array as="points">
              <mxPoint x="-580" y="690" />
              <mxPoint x="-450" y="500" />
              <mxPoint x="-140" y="340" />
            </Array>
          </mxGeometry>
        </mxCell>
        <mxCell id="WlsqMzOY9wFAaWYgSssA-115" value="" style="curved=1;endArrow=classic;html=1;rounded=0;exitX=1;exitY=0.5;exitDx=0;exitDy=0;entryX=0;entryY=0.5;entryDx=0;entryDy=0;" parent="1" target="WlsqMzOY9wFAaWYgSssA-34" edge="1">
          <mxGeometry width="50" height="50" relative="1" as="geometry">
            <mxPoint x="-180" y="820" as="sourcePoint" />
            <mxPoint x="290" y="320" as="targetPoint" />
            <Array as="points">
              <mxPoint x="-200" y="650" />
              <mxPoint x="-100" y="420" />
            </Array>
          </mxGeometry>
        </mxCell>
        <mxCell id="WlsqMzOY9wFAaWYgSssA-116" value="" style="curved=1;endArrow=classic;html=1;rounded=0;exitX=1;exitY=0.75;exitDx=0;exitDy=0;entryX=0;entryY=0.5;entryDx=0;entryDy=0;" parent="1" target="WlsqMzOY9wFAaWYgSssA-35" edge="1">
          <mxGeometry width="50" height="50" relative="1" as="geometry">
            <mxPoint x="-180" y="850" as="sourcePoint" />
            <mxPoint x="290" y="350" as="targetPoint" />
            <Array as="points">
              <mxPoint x="-150" y="690" />
              <mxPoint x="-50" y="440" />
            </Array>
          </mxGeometry>
        </mxCell>
        <mxCell id="WlsqMzOY9wFAaWYgSssA-119" value="" style="curved=1;endArrow=classic;html=1;rounded=0;exitX=1;exitY=0.5;exitDx=0;exitDy=0;entryX=1;entryY=0.5;entryDx=0;entryDy=0;" parent="1" source="WlsqMzOY9wFAaWYgSssA-117" target="WlsqMzOY9wFAaWYgSssA-53" edge="1">
          <mxGeometry width="50" height="50" relative="1" as="geometry">
            <mxPoint x="50" y="540" as="sourcePoint" />
            <mxPoint x="100" y="490" as="targetPoint" />
            <Array as="points">
              <mxPoint />
              <mxPoint x="540" y="20" />
            </Array>
          </mxGeometry>
        </mxCell>
        <mxCell id="WlsqMzOY9wFAaWYgSssA-120" value="" style="curved=1;endArrow=classic;html=1;rounded=0;exitX=1;exitY=0.5;exitDx=0;exitDy=0;entryX=1;entryY=0.5;entryDx=0;entryDy=0;" parent="1" source="WlsqMzOY9wFAaWYgSssA-118" target="WlsqMzOY9wFAaWYgSssA-54" edge="1">
          <mxGeometry width="50" height="50" relative="1" as="geometry">
            <mxPoint x="-150" y="70" as="sourcePoint" />
            <mxPoint x="420" y="165" as="targetPoint" />
            <Array as="points">
              <mxPoint />
              <mxPoint x="540" y="20" />
            </Array>
          </mxGeometry>
        </mxCell>
        <mxCell id="WlsqMzOY9wFAaWYgSssA-121" value="Blue text = Provided by Anypoint Platform" style="text;html=1;align=center;verticalAlign=middle;resizable=0;points=[];autosize=1;strokeColor=none;fillColor=none;fontColor=#004C99;" parent="1" vertex="1">
          <mxGeometry x="750" y="630" width="240" height="30" as="geometry" />
        </mxCell>
        <mxCell id="WlsqMzOY9wFAaWYgSssA-122" value="Green text = Provided for each Repository" style="text;html=1;align=center;verticalAlign=middle;resizable=0;points=[];autosize=1;strokeColor=none;fillColor=none;fontColor=#009900;" parent="1" vertex="1">
          <mxGeometry x="745" y="660" width="250" height="30" as="geometry" />
        </mxCell>
        <mxCell id="WlsqMzOY9wFAaWYgSssA-141" value="https://docs.github.com/en/rest/&lt;br&gt;actions/secrets?apiVersion=2022-11-28" style="text;html=1;align=center;verticalAlign=middle;resizable=0;points=[];autosize=1;strokeColor=none;fillColor=none;" parent="1" vertex="1">
          <mxGeometry x="285" y="313" width="230" height="40" as="geometry" />
        </mxCell>
      </root>
    </mxGraphModel>
  </diagram>
</mxfile>
